<svg width="375" height="812" viewBox="0 0 375 812" fill="none" xmlns="http://www.w3.org/2000/svg">
<g clip-path="url(#clip0_61385:181)">
<rect width="375" height="812" fill="#202024"/>
<circle cx="278" cy="99" r="300" transform="rotate(-180 278 99)" fill="url(#paint0_radial_61385:181)"/>
<circle cx="98" cy="99" r="300" transform="rotate(-180 98 99)" fill="url(#paint1_radial_61385:181)"/>
<path d="M376 134.771V-249.095L187.978 -335.51L-0.0447998 -249.095V134.771L187.978 221.191L376 134.771Z" fill="url(#paint2_linear_61385:181)"/>
<g style="mix-blend-mode:luminosity" opacity="0.4">
<path d="M1.8415 49.2203V135.329L95.3811 178.387L188.921 135.329V49.2203L95.3811 6.16187L1.8415 49.2203Z" fill="url(#paint3_linear_61385:181)"/>
<path d="M1.8415 -36.8926V49.216L95.3811 92.2745L188.921 49.216V-36.8926L95.3811 -79.9511L1.8415 -36.8926Z" fill="url(#paint4_linear_61385:181)"/>
<path d="M282.46 -79.9288V6.17986L188.921 49.2383L95.3811 6.17986V-79.9288L188.921 -122.987L282.46 -79.9288Z" fill="url(#paint5_linear_61385:181)"/>
<path d="M188.921 135.329V49.22L282.46 6.16156L376 49.22V135.329L282.46 178.387L188.921 135.329Z" fill="url(#paint6_linear_61385:181)"/>
<path d="M376 -36.8926V49.216L282.46 92.2745L188.921 49.216V-36.8926L282.46 -79.9511L376 -36.8926Z" fill="url(#paint7_linear_61385:181)"/>
<path d="M282.46 178.405V92.2968L188.921 49.2383L95.3811 92.2968L95.3811 178.405L188.921 221.464L282.46 178.405Z" fill="url(#paint8_linear_61385:181)"/>
</g>
</g>
<defs>
<radialGradient id="paint0_radial_61385:181" cx="0" cy="0" r="1" gradientUnits="userSpaceOnUse" gradientTransform="translate(278 99) rotate(90) scale(300)">
<stop stop-color="#FFC323"/>
<stop offset="1" stop-color="#121214" stop-opacity="0"/>
</radialGradient>
<radialGradient id="paint1_radial_61385:181" cx="0" cy="0" r="1" gradientUnits="userSpaceOnUse" gradientTransform="translate(98 99) rotate(90) scale(300)">
<stop stop-color="#FF3D6E"/>
<stop offset="1" stop-color="#121214" stop-opacity="0"/>
</radialGradient>
<linearGradient id="paint2_linear_61385:181" x1="-68.1309" y1="47.2524" x2="408.803" y2="252.464" gradientUnits="userSpaceOnUse">
<stop stop-color="#FF008E"/>
<stop offset="1" stop-color="#FFCD1E"/>
</linearGradient>
<linearGradient id="paint3_linear_61385:181" x1="95.3811" y1="174.427" x2="29.7876" y2="34.434" gradientUnits="userSpaceOnUse">
<stop stop-color="#8257E5"/>
<stop offset="1" stop-color="#FF008E" stop-opacity="0"/>
</linearGradient>
<linearGradient id="paint4_linear_61385:181" x1="95.3811" y1="88.3142" x2="29.7876" y2="-51.6789" gradientUnits="userSpaceOnUse">
<stop stop-color="#8257E5"/>
<stop offset="1" stop-color="#FF008E" stop-opacity="0"/>
</linearGradient>
<linearGradient id="paint5_linear_61385:181" x1="95.3812" y1="-84.7682" x2="257.726" y2="37.7519" gradientUnits="userSpaceOnUse">
<stop stop-color="#FF008E" stop-opacity="0"/>
<stop offset="1" stop-color="#FFCD1E"/>
</linearGradient>
<linearGradient id="paint6_linear_61385:181" x1="376" y1="140.168" x2="213.655" y2="17.6479" gradientUnits="userSpaceOnUse">
<stop stop-color="#FF008E" stop-opacity="0"/>
<stop offset="1" stop-color="#FFCD1E"/>
</linearGradient>
<linearGradient id="paint7_linear_61385:181" x1="282.46" y1="88.3142" x2="348.054" y2="-51.6789" gradientUnits="userSpaceOnUse">
<stop stop-color="#8257E5"/>
<stop offset="1" stop-color="#FF008E" stop-opacity="0"/>
</linearGradient>
<linearGradient id="paint8_linear_61385:181" x1="188.921" y1="53.1985" x2="254.514" y2="193.192" gradientUnits="userSpaceOnUse">
<stop stop-color="#8257E5"/>
<stop offset="1" stop-color="#FF008E" stop-opacity="0"/>
</linearGradient>
<clipPath id="clip0_61385:181">
<rect width="375" height="812" fill="white"/>
</clipPath>
</defs>
</svg>
